<svg width="920" height="520" viewBox="0 0 920 520" fill="none" xmlns="http://www.w3.org/2000/svg">
  <rect width="920" height="520" rx="34" fill="#F7FBF9"/>
  <rect x="352" y="180" width="216" height="160" rx="32" fill="#FFFFFF" stroke="#E5ECE8"/>
  <rect x="410" y="218" width="100" height="18" rx="9" fill="#D7F545"/>
  <rect x="392" y="252" width="136" height="18" rx="9" fill="#DCE8E2"/>
  <rect x="402" y="286" width="116" height="18" rx="9" fill="#E8EFEB"/>
  <circle cx="154" cy="108" r="62" fill="#FFFFFF" stroke="#E5ECE8"/>
  <circle cx="766" cy="108" r="62" fill="#FFFFFF" stroke="#E5ECE8"/>
  <circle cx="154" cy="412" r="62" fill="#FFFFFF" stroke="#E5ECE8"/>
  <circle cx="766" cy="412" r="62" fill="#FFFFFF" stroke="#E5ECE8"/>
  <path d="M214 140L352 224" stroke="#D3DFD9" stroke-width="6" stroke-linecap="round" stroke-dasharray="10 16"/>
  <path d="M706 140L568 224" stroke="#D3DFD9" stroke-width="6" stroke-linecap="round" stroke-dasharray="10 16"/>
  <path d="M214 380L352 296" stroke="#D3DFD9" stroke-width="6" stroke-linecap="round" stroke-dasharray="10 16"/>
  <path d="M706 380L568 296" stroke="#D3DFD9" stroke-width="6" stroke-linecap="round" stroke-dasharray="10 16"/>
  <rect x="124" y="84" width="60" height="48" rx="16" fill="#D7F545" fill-opacity="0.28"/>
  <rect x="736" y="84" width="60" height="48" rx="16" fill="#DCE8E2"/>
  <rect x="124" y="388" width="60" height="48" rx="16" fill="#DCE8E2"/>
  <rect x="736" y="388" width="60" height="48" rx="16" fill="#D7F545" fill-opacity="0.28"/>
</svg>
