<svg width="820" height="460" viewBox="0 0 820 460" fill="none" xmlns="http://www.w3.org/2000/svg">
  <rect width="820" height="460" rx="30" fill="#F7FBF9"/>
  <path d="M176 230H644" stroke="#D5E0DB" stroke-width="6" stroke-linecap="round" stroke-dasharray="10 16"/>
  <path d="M246 126L410 230L574 126" stroke="#D5E0DB" stroke-width="6" stroke-linecap="round" stroke-dasharray="10 16"/>
  <path d="M246 334L410 230L574 334" stroke="#D5E0DB" stroke-width="6" stroke-linecap="round" stroke-dasharray="10 16"/>
  <circle cx="410" cy="230" r="76" fill="#FFFFFF" stroke="#E5ECE8" stroke-width="3"/>
  <circle cx="410" cy="230" r="34" fill="#D7F545" fill-opacity="0.28"/>
  <rect x="131" y="87" width="116" height="78" rx="22" fill="#FFFFFF" stroke="#E5ECE8"/>
  <rect x="573" y="87" width="116" height="78" rx="22" fill="#FFFFFF" stroke="#E5ECE8"/>
  <rect x="131" y="295" width="116" height="78" rx="22" fill="#FFFFFF" stroke="#E5ECE8"/>
  <rect x="573" y="295" width="116" height="78" rx="22" fill="#FFFFFF" stroke="#E5ECE8"/>
  <rect x="80" y="191" width="116" height="78" rx="22" fill="#FFFFFF" stroke="#E5ECE8"/>
  <rect x="624" y="191" width="116" height="78" rx="22" fill="#FFFFFF" stroke="#E5ECE8"/>
  <rect x="157" y="109" width="64" height="14" rx="7" fill="#D7F545"/>
  <rect x="599" y="109" width="64" height="14" rx="7" fill="#D7F545"/>
  <rect x="157" y="317" width="64" height="14" rx="7" fill="#DCE8E2"/>
  <rect x="599" y="317" width="64" height="14" rx="7" fill="#DCE8E2"/>
  <rect x="106" y="213" width="64" height="14" rx="7" fill="#DCE8E2"/>
  <rect x="650" y="213" width="64" height="14" rx="7" fill="#DCE8E2"/>
</svg>
