<?xml version="1.0" encoding="UTF-8"?>
<!DOCTYPE svg PUBLIC "-//W3C//DTD SVG 1.1//EN" "http://www.w3.org/Graphics/SVG/1.1/DTD/svg11.dtd">
<!-- Creator: CorelDRAW 2021 (64-Bit) -->
<svg xmlns="http://www.w3.org/2000/svg" xml:space="preserve" width="74px" height="74px" version="1.1" style="shape-rendering:geometricPrecision; text-rendering:geometricPrecision; image-rendering:optimizeQuality; fill-rule:evenodd; clip-rule:evenodd"
viewBox="0 0 74 74"
 xmlns:xlink="http://www.w3.org/1999/xlink"
 xmlns:xodm="http://www.corel.com/coreldraw/odm/2003">
 <defs>
  <style type="text/css">
   <![CDATA[
    .fil1 {fill:#16404B}
    .fil2 {fill:#FFF3E9}
    .fil0 {fill:white}
   ]]>
  </style>
 </defs>
 <g id="Layer_x0020_1">
  <metadata id="CorelCorpID_0Corel-Layer"/>
  <polygon class="fil0" points="-1468.134,417.288 -488.126,417.288 -488.126,-562.72 -1468.134,-562.72 "/>
  <g id="_2834926999536">
   <circle class="fil1" cx="37" cy="37" r="37"/>
   <path class="fil2" d="M28.852 44.819c-0.246,-0.817 -0.287,-1.514 -0.604,-2.324 -0.804,-2.054 -2.058,-3.884 -3.886,-5.067 -2.124,-1.375 -4.57,-1.58 -6.304,0.595 -0.331,0.415 -0.895,1.366 -1.037,2.009 2.333,-0.093 3.522,0.74 4.571,1.971 2.658,3.118 3.312,11.133 6.556,13.017 2.408,-1.095 5.504,-7.416 6.579,-9.619 3.351,-6.873 7.385,-14.174 12.926,-19.497 2.602,-2.5 4.84,-4.302 8.017,-6.168 0.396,-0.233 0.919,-0.57 1.309,-0.728 -0.201,-0.102 -1.23,0.1 -1.444,0.136 -9.385,1.608 -17.298,9.061 -22.148,16.701 -1.201,1.893 -2.627,4.443 -3.546,6.585 -0.292,0.679 -0.792,1.707 -0.989,2.389z"/>
  </g>
 </g>
</svg>
