<svg width="900" height="620" viewBox="0 0 900 620" fill="none" xmlns="http://www.w3.org/2000/svg">
  <defs>
    <linearGradient id="panelFill" x1="118" y1="86" x2="782" y2="534" gradientUnits="userSpaceOnUse">
      <stop stop-color="#FCFDFC"/>
      <stop offset="1" stop-color="#F3F8F5"/>
    </linearGradient>
    <filter id="softShadow" x="0" y="0" width="900" height="620" filterUnits="userSpaceOnUse" color-interpolation-filters="sRGB">
      <feFlood flood-opacity="0" result="BackgroundImageFix"/>
      <feColorMatrix in="SourceAlpha" type="matrix" values="0 0 0 0 0 0 0 0 0 0 0 0 0 0 0 0 0 0 127 0" result="hardAlpha"/>
      <feOffset dy="20"/>
      <feGaussianBlur stdDeviation="24"/>
      <feColorMatrix type="matrix" values="0 0 0 0 0.0627451 0 0 0 0 0.0901961 0 0 0 0 0.113725 0 0 0 0.08 0"/>
      <feBlend mode="normal" in2="BackgroundImageFix" result="effect1_dropShadow_1_1"/>
      <feBlend mode="normal" in="SourceGraphic" in2="effect1_dropShadow_1_1" result="shape"/>
    </filter>
  </defs>

  <g filter="url(#softShadow)">
    <rect x="82" y="68" width="736" height="484" rx="34" fill="url(#panelFill)" stroke="#E8EFEB" stroke-width="2"/>

    <rect x="118" y="114" width="304" height="144" rx="22" fill="#F6FAF8" stroke="#E8EFEB"/>
    <text x="148" y="154" fill="#121A22" font-family="Segoe UI, Arial, sans-serif" font-size="18" font-weight="700">Attendance Check</text>
    <text x="148" y="180" fill="#6A7480" font-family="Segoe UI, Arial, sans-serif" font-size="12">Leave, shift and roster records</text>
    <text x="148" y="200" fill="#6A7480" font-family="Segoe UI, Arial, sans-serif" font-size="12">locked before payroll processing.</text>
    <rect x="148" y="220" width="118" height="10" rx="5" fill="#D7F545"/>
    <rect x="148" y="236" width="180" height="10" rx="5" fill="#DCE8E2"/>

    <rect x="478" y="114" width="304" height="144" rx="22" fill="#FBFDEA" stroke="#E8EFEB"/>
    <text x="508" y="154" fill="#121A22" font-family="Segoe UI, Arial, sans-serif" font-size="18" font-weight="700">Salary Preview</text>
    <text x="508" y="180" fill="#6A7480" font-family="Segoe UI, Arial, sans-serif" font-size="12">Gross pay, deductions and</text>
    <text x="508" y="200" fill="#6A7480" font-family="Segoe UI, Arial, sans-serif" font-size="12">net salary reviewed in one pass.</text>
    <rect x="508" y="220" width="132" height="10" rx="5" fill="#DCE8E2"/>
    <rect x="508" y="236" width="104" height="10" rx="5" fill="#E8EFEB"/>

    <rect x="118" y="302" width="304" height="144" rx="22" fill="#FBFCFF" stroke="#E8EFEB"/>
    <text x="148" y="342" fill="#121A22" font-family="Segoe UI, Arial, sans-serif" font-size="18" font-weight="700">Variance Trend</text>
    <text x="148" y="368" fill="#6A7480" font-family="Segoe UI, Arial, sans-serif" font-size="12">Spot changes in payroll values</text>
    <text x="148" y="388" fill="#6A7480" font-family="Segoe UI, Arial, sans-serif" font-size="12">before the month is closed.</text>
    <rect x="148" y="408" width="124" height="10" rx="5" fill="#DCE8E2"/>
    <rect x="148" y="424" width="178" height="10" rx="5" fill="#E8EFEB"/>

    <rect x="478" y="302" width="304" height="144" rx="22" fill="#F6FAF8" stroke="#E8EFEB"/>
    <text x="508" y="342" fill="#121A22" font-family="Segoe UI, Arial, sans-serif" font-size="18" font-weight="700">Deadline Window</text>
    <text x="508" y="368" fill="#6A7480" font-family="Segoe UI, Arial, sans-serif" font-size="12">Keep PF, ESIC and ECR filing</text>
    <text x="508" y="388" fill="#6A7480" font-family="Segoe UI, Arial, sans-serif" font-size="12">on schedule after payroll approval.</text>
    <rect x="508" y="408" width="136" height="10" rx="5" fill="#DCE8E2"/>
    <rect x="508" y="424" width="188" height="10" rx="5" fill="#E8EFEB"/>
  </g>
</svg>
