<svg width="1200" height="820" viewBox="0 0 1200 820" fill="none" xmlns="http://www.w3.org/2000/svg">
  <defs>
    <linearGradient id="shellGlow" x1="136" y1="72" x2="1062" y2="748" gradientUnits="userSpaceOnUse">
      <stop stop-color="#FEFFFC"/>
      <stop offset="1" stop-color="#F4F9F6"/>
    </linearGradient>
    <linearGradient id="screenFill" x1="104" y1="104" x2="1096" y2="716" gradientUnits="userSpaceOnUse">
      <stop stop-color="#FFFFFF"/>
      <stop offset="1" stop-color="#FBFDFC"/>
    </linearGradient>
    <filter id="softShadow" x="0" y="0" width="1200" height="820" filterUnits="userSpaceOnUse" color-interpolation-filters="sRGB">
      <feFlood flood-opacity="0" result="BackgroundImageFix"/>
      <feColorMatrix in="SourceAlpha" type="matrix" values="0 0 0 0 0 0 0 0 0 0 0 0 0 0 0 0 0 0 127 0" result="hardAlpha"/>
      <feOffset dy="26"/>
      <feGaussianBlur stdDeviation="28"/>
      <feColorMatrix type="matrix" values="0 0 0 0 0.0627451 0 0 0 0 0.0901961 0 0 0 0 0.113725 0 0 0 0.08 0"/>
      <feBlend mode="normal" in2="BackgroundImageFix" result="effect1_dropShadow_1_1"/>
      <feBlend mode="normal" in="SourceGraphic" in2="effect1_dropShadow_1_1" result="shape"/>
    </filter>
  </defs>

  <g filter="url(#softShadow)">
    <rect x="66" y="42" width="1068" height="702" rx="52" fill="url(#shellGlow)"/>
    <rect x="104" y="86" width="992" height="614" rx="34" fill="url(#screenFill)" stroke="#E7EEEA" stroke-width="2"/>

    <rect x="132" y="124" width="148" height="510" rx="26" fill="#F1F6F3"/>
    <text x="160" y="170" fill="#66707B" font-family="Segoe UI, Arial, sans-serif" font-size="18" font-weight="700">Clients</text>
    <rect x="160" y="196" width="92" height="54" rx="14" fill="#FFFFFF" stroke="#E7EEEA"/>
    <text x="178" y="228" fill="#121A22" font-family="Segoe UI, Arial, sans-serif" font-size="14" font-weight="700">Roster</text>
    <rect x="160" y="276" width="92" height="54" rx="14" fill="#FFFFFF" stroke="#E7EEEA"/>
    <text x="181" y="308" fill="#121A22" font-family="Segoe UI, Arial, sans-serif" font-size="14" font-weight="700">Payslip</text>
    <rect x="160" y="356" width="92" height="54" rx="14" fill="#FFFFFF" stroke="#E7EEEA"/>
    <text x="188" y="388" fill="#121A22" font-family="Segoe UI, Arial, sans-serif" font-size="14" font-weight="700">ECR</text>

    <rect x="330" y="124" width="676" height="82" rx="22" fill="#F6FAF8"/>
    <text x="368" y="156" fill="#121A22" font-family="Segoe UI, Arial, sans-serif" font-size="18" font-weight="700">Monthly operations board</text>
    <rect x="368" y="170" width="218" height="14" rx="7" fill="#DCE8E2"/>
    <rect x="368" y="192" width="382" height="10" rx="5" fill="#EBF1EE"/>

    <rect x="330" y="232" width="208" height="136" rx="22" fill="#FBFDEA" stroke="#E7EEEA"/>
    <text x="360" y="266" fill="#121A22" font-family="Segoe UI, Arial, sans-serif" font-size="17" font-weight="700">Attendance sync</text>
    <text x="360" y="292" fill="#6A7480" font-family="Segoe UI, Arial, sans-serif" font-size="12">Roster, shift and leave</text>
    <text x="360" y="312" fill="#6A7480" font-family="Segoe UI, Arial, sans-serif" font-size="12">validated before payroll.</text>
    <rect x="360" y="328" width="108" height="10" rx="5" fill="#DCE8E2"/>

    <rect x="565" y="232" width="208" height="136" rx="22" fill="#F8FBF9" stroke="#E7EEEA"/>
    <text x="595" y="266" fill="#121A22" font-family="Segoe UI, Arial, sans-serif" font-size="17" font-weight="700">Payroll batch</text>
    <text x="595" y="292" fill="#6A7480" font-family="Segoe UI, Arial, sans-serif" font-size="12">Salary sheet, deductions</text>
    <text x="595" y="312" fill="#6A7480" font-family="Segoe UI, Arial, sans-serif" font-size="12">and net pay review.</text>
    <rect x="595" y="328" width="126" height="10" rx="5" fill="#DCE8E2"/>

    <rect x="800" y="232" width="206" height="136" rx="22" fill="#F8FBF9" stroke="#E7EEEA"/>
    <text x="830" y="266" fill="#121A22" font-family="Segoe UI, Arial, sans-serif" font-size="17" font-weight="700">Filing window</text>
    <text x="830" y="292" fill="#6A7480" font-family="Segoe UI, Arial, sans-serif" font-size="12">PF, ESIC and ECR outputs</text>
    <text x="830" y="312" fill="#6A7480" font-family="Segoe UI, Arial, sans-serif" font-size="12">tracked before dispatch.</text>
    <rect x="830" y="328" width="118" height="10" rx="5" fill="#DCE8E2"/>

    <rect x="330" y="398" width="676" height="206" rx="26" fill="#F8FBF9" stroke="#E7EEEA"/>
    <text x="368" y="434" fill="#121A22" font-family="Segoe UI, Arial, sans-serif" font-size="19" font-weight="700">Payroll to compliance flow</text>
    <rect x="368" y="448" width="340" height="12" rx="6" fill="#DCE8E2"/>

    <rect x="368" y="486" width="160" height="78" rx="18" fill="#FFFFFF" stroke="#E7EEEA"/>
    <text x="392" y="514" fill="#121A22" font-family="Segoe UI, Arial, sans-serif" font-size="15" font-weight="700">Attendance</text>
    <text x="392" y="537" fill="#6A7480" font-family="Segoe UI, Arial, sans-serif" font-size="12">Roster lock and leave</text>
    <text x="392" y="555" fill="#6A7480" font-family="Segoe UI, Arial, sans-serif" font-size="12">ready for payroll run.</text>

    <rect x="548" y="486" width="160" height="78" rx="18" fill="#FFFFFF" stroke="#E7EEEA"/>
    <text x="576" y="514" fill="#121A22" font-family="Segoe UI, Arial, sans-serif" font-size="15" font-weight="700">Salary Run</text>
    <text x="576" y="537" fill="#6A7480" font-family="Segoe UI, Arial, sans-serif" font-size="12">Process earnings,</text>
    <text x="576" y="555" fill="#6A7480" font-family="Segoe UI, Arial, sans-serif" font-size="12">deductions and net pay.</text>

    <rect x="728" y="486" width="238" height="78" rx="18" fill="#FFFFFF" stroke="#E7EEEA"/>
    <text x="754" y="514" fill="#121A22" font-family="Segoe UI, Arial, sans-serif" font-size="15" font-weight="700">Returns and Billing</text>
    <text x="754" y="537" fill="#6A7480" font-family="Segoe UI, Arial, sans-serif" font-size="12">PF challan, ESIC, ECR,</text>
    <text x="754" y="555" fill="#6A7480" font-family="Segoe UI, Arial, sans-serif" font-size="12">invoice and payslip dispatch.</text>

    <circle cx="182" cy="158" r="18" fill="#D7F545" fill-opacity="0.22"/>
    <rect x="158" y="150" width="74" height="16" rx="8" fill="#D7F545"/>
  </g>
</svg>
