<svg width="760" height="760" viewBox="0 0 760 760" fill="none" xmlns="http://www.w3.org/2000/svg">
  <g transform="translate(58 48) scale(1.1)">
    <path d="M322 294L278 230" stroke="#D8E4DE" stroke-width="5" stroke-linecap="round"/>
    <path d="M438 294L474 230" stroke="#D8E4DE" stroke-width="5" stroke-linecap="round"/>
    <path d="M322 406L270 474" stroke="#D8E4DE" stroke-width="5" stroke-linecap="round"/>
    <path d="M438 406L490 474" stroke="#D8E4DE" stroke-width="5" stroke-linecap="round"/>

    <rect x="166" y="126" width="168" height="92" rx="22" fill="#FFFFFF" stroke="#E7EEEA"/>
    <text x="190" y="156" fill="#121A22" font-family="Segoe UI, Arial, sans-serif" font-size="16" font-weight="700">Attendance clarity</text>
    <text x="190" y="178" fill="#69727F" font-family="Segoe UI, Arial, sans-serif" font-size="11">Roster, leave and monthly</text>
    <text x="190" y="196" fill="#69727F" font-family="Segoe UI, Arial, sans-serif" font-size="11">records stay ready for payroll.</text>

    <rect x="426" y="126" width="100" height="92" rx="22" fill="#FBFDEA" stroke="#E7EEEA"/>
    <text x="444" y="158" fill="#121A22" font-family="Segoe UI, Arial, sans-serif" font-size="15" font-weight="700">HR control</text>
    <text x="446" y="180" fill="#69727F" font-family="Segoe UI, Arial, sans-serif" font-size="11">admin visibility</text>

    <circle cx="380" cy="350" r="82" fill="#EAF0ED"/>
    <circle cx="380" cy="350" r="56" fill="#FFFFFF" stroke="#E7EEEA" stroke-width="2"/>
    <text x="346" y="344" fill="#121A22" font-family="Segoe UI, Arial, sans-serif" font-size="18" font-weight="700">HR Seva</text>
    <text x="327" y="366" fill="#69727F" font-family="Segoe UI, Arial, sans-serif" font-size="11">HR and compliance view</text>

    <rect x="162" y="442" width="152" height="92" rx="22" fill="#FFFFFF" stroke="#E7EEEA"/>
    <text x="186" y="474" fill="#121A22" font-family="Segoe UI, Arial, sans-serif" font-size="15" font-weight="700">Payroll accuracy</text>
    <text x="186" y="496" fill="#69727F" font-family="Segoe UI, Arial, sans-serif" font-size="11">Salary inputs stay aligned</text>
    <text x="186" y="514" fill="#69727F" font-family="Segoe UI, Arial, sans-serif" font-size="11">before monthly processing.</text>

    <rect x="430" y="442" width="152" height="92" rx="22" fill="#FFFFFF" stroke="#E7EEEA"/>
    <text x="454" y="474" fill="#121A22" font-family="Segoe UI, Arial, sans-serif" font-size="15" font-weight="700">Compliance ready</text>
    <text x="454" y="496" fill="#69727F" font-family="Segoe UI, Arial, sans-serif" font-size="11">PF, ESIC and ECR outputs</text>
    <text x="454" y="514" fill="#69727F" font-family="Segoe UI, Arial, sans-serif" font-size="11">stay prepared on time.</text>

    <circle cx="278" cy="230" r="8" fill="#D7F545"/>
    <circle cx="474" cy="230" r="8" fill="#D7F545"/>
    <circle cx="270" cy="474" r="8" fill="#DCE8E2"/>
    <circle cx="490" cy="474" r="8" fill="#D7F545"/>
  </g>
</svg>
